<?xml version="1.0" encoding="UTF-8"?>
<!DOCTYPE svg PUBLIC "-//W3C//DTD SVG 1.1//EN" "http://www.w3.org/Graphics/SVG/1.1/DTD/svg11.dtd">
<!-- Creator: CorelDRAW 2021 (64-Bit) -->
<svg xmlns="http://www.w3.org/2000/svg" xml:space="preserve" width="1123px" height="794px" version="1.1" style="shape-rendering:geometricPrecision; text-rendering:geometricPrecision; image-rendering:optimizeQuality; fill-rule:evenodd; clip-rule:evenodd"
viewBox="0 0 1123 794.04"
 xmlns:xlink="http://www.w3.org/1999/xlink"
 xmlns:xodm="http://www.corel.com/coreldraw/odm/2003">
 <defs>
  <style type="text/css">
   <![CDATA[
    .fil0 {fill:#FEFEFE}
   ]]>
  </style>
 </defs>
 <g id="Слой_x0020_1">
  <metadata id="CorelCorpID_0Corel-Layer"/>
  <path class="fil0" d="M512.781 436.444c-3.192,0.829 -6.052,4.122 -12.265,-3.685 -1.459,-1.834 -2.439,-3.691 -3.774,-5.233 -1.856,-2.144 -3.626,-2.738 -5.039,-4.316 1.821,-2.052 3.214,-1.482 6.429,-6.204 1.732,-2.544 3.571,-5.33 5.785,-6.897 2.929,-2.074 7.824,-2.086 9.292,0.96 1.612,3.342 -0.173,7.833 -3.39,8.335 4.696,-5.497 -4.289,-9.802 -5.677,-4.153 -0.515,2.096 0.612,2.968 1.084,4.61 -3.876,-0.045 -6.454,0.448 -8.39,3.349 1.866,3.013 5.278,3.337 8.497,3.379 -0.658,1.351 -1.619,2.327 -1.298,4.281 0.657,3.989 5.727,3.607 6.799,0.807 0.81,-2.116 -0.142,-3.208 -0.789,-4.673 4.367,1.658 4.007,5.265 2.736,9.44zm-102.56 -16.509l-2.69 -4.14c-0.488,-0.898 -0.243,-0.431 -0.553,-0.828 -1.819,0.874 -2.616,3.645 -1.01,4.821 -0.287,2.32 -2.921,0.113 -5.537,3.422 1.344,1.762 2.652,2.02 5.542,2.303 -0.293,1.835 -1.975,4.424 1.005,5.909 0.064,-0.081 0.038,-0.221 0.164,-0.264 0.365,-0.122 0.567,-2.259 2.379,-3.774 1.426,-1.193 2.97,-1.787 5.136,-1.632 -11.115,14.103 6.4,23.666 17.226,10.087 1.524,-1.912 5.186,-8.006 7.336,-8.392 0.688,-0.912 1.476,-1.526 2.981,-1.807 4.648,-0.871 3.842,2.3 12.232,-0.294l0.404 1.139c0.467,2.285 0.942,2.831 3.224,3.228l0.1 -3.563c1.671,-0.491 2.313,-1.101 3.556,0.423 2.171,2.645 -0.87,3.908 -2.131,5.484 -1.608,2.007 -0.541,3.518 -2.959,5.621 -4.005,3.481 -10.566,0.637 -7.587,-5.11l2.584 -0.533c0.955,1.234 1.801,1.355 0.734,3.914 0.548,-0.075 0.899,-0.004 1.453,-0.264 1.554,-0.727 0.716,-0.52 1.149,-1.203l0.287 -0.339c1.455,-3.362 -2.327,-8.812 -8.996,-3.643 -1.28,-1.483 -1.272,-3.837 -6.344,-1.224l0.394 3.936c-3.313,0.681 -4.495,2.689 -4.812,6.307 7.441,-3.181 7.178,-0.668 12.861,2.042 6.348,3.026 9.21,1.007 12.628,-2.676 2.777,4.068 3.415,5.47 7.364,0.202 2.682,2.18 5.262,6.091 12.631,2.488 5.787,-2.83 5.693,-5.231 12.84,-2.055 -0.244,-3.508 -1.501,-5.675 -4.797,-6.307l0.362 -3.944c-4.877,-2.945 -5.645,0.387 -6.335,1.304 -0.938,-1.007 -1.391,-1.483 -2.836,-1.48l-0.413 -0.628c-4.362,-0.373 -6.548,1.294 -5.903,5.79 0.989,1.315 1.164,1.448 3.063,1.667l-0.639 -2.443c0.686,-0.688 0.874,-0.822 1.379,-1.445 1.885,0.345 2.943,0.24 3.357,2.282 0.385,1.902 -0.439,3.061 -1.436,3.839 -2.682,2.09 -5.905,0.781 -7.543,-1.087 -1.362,-1.553 -1,-2.041 -1.61,-3.691 -0.877,-2.377 -5.261,-3.941 -2.981,-6.88 0.929,-1.198 2.387,-0.641 3.679,-0.401l0.115 3.624c1.982,-0.3 2.545,-0.943 3.088,-2.826l0.101 -0.409 0.269 -1.163c3.983,1.249 3.926,1.522 8.516,0.556 9.122,-1.918 10.982,7.843 17.274,13.006 11.982,9.831 23.849,-2.422 14.122,-13.126 2.041,-0.133 3.484,0.294 4.933,1.429 0.842,0.66 0.882,0.692 1.5,1.805l0.783 1.606c0.043,0.081 0.112,0.199 0.152,0.271l0.328 0.544c2.431,-1.333 1.739,-3.023 1.112,-5.827 2.685,-0.18 4.148,-0.76 5.416,-2.376 -1.215,-1.605 -2.593,-2.18 -5.415,-2.385 0.496,-2.31 1.44,-4.595 -1.113,-5.831l-0.323 0.524c-0.512,0.952 -0.887,2.32 -2.222,3.488 -1.416,1.238 -2.937,1.805 -5.136,1.651 1.484,-1.911 2.919,-2.87 3.371,-6.627 1.233,-10.267 -11.005,-15.821 -22.042,-1.613 -1.636,2.107 -2.527,3.98 -4.45,5.758 -6.512,6.025 -11.178,-0.722 -16.059,2.827 -1.82,-0.225 -0.213,-0.896 -1.634,-2.876 -0.595,-0.828 -1.478,-1.206 -2.599,-1.437l0.073 3.333c-5.07,2.019 -4.5,-1.994 -4.03,-3.139 0.527,-1.285 1.571,-1.441 2.449,-2.513 1.019,-1.246 0.764,-1.985 1.407,-3.515 0.853,-2.032 3.082,-3.833 5.779,-3.651 1.449,0.098 2.685,0.937 3.313,1.643 0.923,1.039 0.777,2.453 0.9,3.976l-0.569 0.456c-0.094,0.072 -0.403,0.338 -0.512,0.407 -1.446,0.905 -2.331,0.36 -3.484,-0.333 -0.168,-1.258 0.03,-1.984 0.387,-2.864 -4.34,0.437 -3.998,4.926 -1.533,6.414 0.383,2.384 5.679,0.789 7.642,-0.99 0.648,0.811 0.82,1.911 2.147,2.259 1.657,0.434 2.769,-0.25 3.833,-0.85l0.356 -2.68 -0.123 -1.167c0.357,-0.103 0.566,-0.122 0.944,-0.295l0.922 -0.622c1.928,-1.574 2.151,-2.939 2.789,-5.632 -2.281,0.499 -3.273,2.063 -6.585,1.302 -2.063,-0.475 -4.137,-2.206 -5.838,-3.116 -4.293,-2.295 -9.972,-2.293 -12.451,1.775l-0.643 0.891c-0.648,-0.5 -0.191,0.184 -0.658,-1.032 -1.218,-3.653 -4.942,-3.404 -6.214,-0.019 -0.286,1.989 0.021,0.533 -0.57,0.997l-0.739 -0.83c-2.398,-3.886 -7.754,-4.173 -12.153,-1.91 -5.973,3.073 -5.584,4.835 -12.598,1.906 0.42,5.567 3.148,5.648 4.9,6.502l-0.474 3.747c0.994,0.553 1.922,1.217 3.478,1.127 1.424,-0.083 0.975,0.02 1.74,-0.695l1.119 -1.433c1.123,0.581 4.527,3.017 7.07,1.474 1.389,-0.843 0.325,-0.081 0.561,-0.732 1.254,-0.583 0.186,0.34 1.1,-0.932l0.57 -3.287c-0.298,-1.562 -1.341,-1.989 -3.089,-2.203l0.338 2.525c-0.06,0.062 -0.525,0.608 -0.611,0.718l-0.424 0.627c-1.457,-0.281 -2.472,-0.159 -3.12,-1.293 -2.067,-3.612 2.697,-7.457 6.751,-5.118 3.291,1.898 2.198,2.837 3.691,5.707 1.515,2.91 3.827,1.423 2.951,6.184 -1.127,0.801 -1.755,1.248 -3.515,0.518 -1.197,-1.599 -0.708,-1.806 -0.384,-3.619 -3.805,0.689 -2.61,2.397 -3.707,4.365 -9.437,-3.127 -10.053,2.721 -16.223,-2.509 -3.658,-3.1 -5.194,-7.724 -9.64,-11.218 -8.596,-6.757 -18.223,-2.915 -17.325,6.412 0.346,3.59 1.853,4.988 3.434,6.914 -2.743,0.187 -2.703,-0.696 -4.457,-0.736zm13.456 -0.539c0.321,-0.177 1.014,-0.264 1.466,-1.754 0.26,-0.856 0.296,-1.561 0.066,-2.457 -0.91,-3.549 -5.711,-3.343 -6.824,-0.165 -0.749,2.138 0.479,2.805 0.682,4.441 -7.414,-3.592 -2.342,-14.955 5.846,-9.673 4.43,2.857 7.216,10.757 11.869,12.462l1.303 0.573c-0.349,1.212 0.222,0.273 -0.769,1.075 -4.596,1.241 -7.993,9.586 -11.942,12.394 -2.74,1.949 -7.462,2.152 -9.124,-0.665 -2.756,-4.672 1.956,-8.167 2.375,-8.631l0.869 0.076c-4.283,4.429 2.696,9.337 5.227,5.29 0.228,-0.365 0.56,-1.196 0.616,-1.811 0.241,-2.641 -0.496,-1.979 -0.859,-2.251 -0.003,-1.225 -0.008,-0.63 -0.561,-1.66 3.819,-0.292 6.63,-0.267 8.529,-3.43 -2.404,-4.258 -7.293,-2.672 -8.769,-3.814z"/>
 </g>
</svg>
