<?xml version="1.0" encoding="UTF-8"?>
<!DOCTYPE svg PUBLIC "-//W3C//DTD SVG 1.1//EN" "http://www.w3.org/Graphics/SVG/1.1/DTD/svg11.dtd">
<!-- Creator: CorelDRAW 2021 (64-Bit) -->
<svg xmlns="http://www.w3.org/2000/svg" xml:space="preserve" width="1123px" height="794px" version="1.1" style="shape-rendering:geometricPrecision; text-rendering:geometricPrecision; image-rendering:optimizeQuality; fill-rule:evenodd; clip-rule:evenodd"
viewBox="0 0 1123 794.04"
 xmlns:xlink="http://www.w3.org/1999/xlink"
 xmlns:xodm="http://www.corel.com/coreldraw/odm/2003">
 <defs>
  <style type="text/css">
   <![CDATA[
    .fil0 {fill:#FEFEFE}
   ]]>
  </style>
 </defs>
 <g id="Слой_x0020_1">
  <metadata id="CorelCorpID_0Corel-Layer"/>
  <path class="fil0" d="M571.815 379.52c2.713,-1.252 2.272,-3.72 3.568,-6.366 3.723,1.282 6.243,2.343 9.393,-0.668 2.904,-2.775 3.163,-5.994 -0.599,-7.788 -0.77,0.957 -0.281,2.231 -1.465,3.4 -1.834,1.812 -5.94,1.213 -4.183,-3.989 1.844,-5.462 8.82,-1.616 10.64,0.404 4.059,4.503 3.421,9.763 10.679,11.842 10.158,2.909 14.703,-6.845 22.558,-10.483 6.094,-2.822 5.875,0.537 9.584,0.745 -0.458,-4.648 -7.476,-8.135 -13.942,-3.981 -2.343,1.506 -2.144,2.331 -3.798,3.841 -0.043,-0.083 -0.182,-0.225 -0.098,-0.26l-0.549 -2.318c-1.87,-7.218 -12.054,-8.041 -13.349,-2.527 -0.715,3.044 -0.219,5.828 2.999,5.605 0.5,-1.035 0.122,-6.502 4.227,-3.831 1.942,1.263 3.643,5.564 0.153,8.144 -3.819,2.823 -9.184,0.326 -10.473,-3.441 -1.571,-4.593 -4.211,-5.038 -2.714,-11.459 2.258,-9.683 5.3,-5.924 7.175,-7.227 -2.702,-3.126 -9.727,-2.298 -12.156,3.402l-1.46 5.218c-2.184,-0.286 -3.05,-0.866 -5.263,-0.981 -2.27,-0.118 -3.656,0.518 -5.573,0.376 1.527,-5.575 -2.933,-11.182 -6.927,-12.079 1.888,5.215 4.068,11.412 -3.78,16.696 -0.292,-7.701 -9.037,-8.549 -10.765,-7.586 -1.294,0.721 -0.042,-0.3 -0.907,0.84 2.698,1.457 4.495,-0.145 5.661,3.797 1.061,3.587 -0.297,5.215 -2.752,6.454 -6.676,3.368 -8.649,3.317 -16.343,2.126 -0.678,-0.726 -2.186,-2.154 -2.876,-2.327 -0.765,-5.345 -3.128,-10.415 -0.234,-15.701 4.571,-1.669 5.508,-0.556 8.537,1.25 -0.473,1.614 -0.008,1.952 -0.843,3.858 -3.447,1.037 -2.684,-0.383 -5.721,-1.374 0.792,7.567 8.039,6.976 10.519,4.564 1.198,-1.166 0.771,-0.848 0.976,-1.663 2.561,-1.99 1.661,-4.614 1.708,-7.386 5.126,-0.422 10.721,-3.355 10.159,-8.431 -3.819,-0.032 0.886,0.226 -4.604,2.389 -2.053,0.809 -4.306,0.851 -6.622,0.551 -6.369,-0.826 -8.286,-0.652 -13.739,-0.09 -0.083,-2.252 -0.155,-3.595 -1.599,-5.325 -1.402,-1.682 -0.249,-0.542 -1.602,-1.412 -0.982,-1.705 -0.619,-1.373 -2.058,-2.125 -1.093,0.852 -1.895,2.055 -1.922,3.26 -1.996,1.727 -1.764,3.308 -1.914,6.047 -8.676,-1.742 -4.17,-1.296 -14.469,-0.668 -8.71,0.531 -8.195,-3.306 -11.271,-3.921 -0.655,5.361 5.247,8.985 10.932,9.009l0.007 1.792c-2.53,4.454 3.249,12.654 10.411,7.531 0.943,-0.674 2.18,-1.726 2.287,-2.9 0.108,-1.189 0.1,-0.549 -0.309,-1.104 -2.106,-1.747 -1.317,1.301 -4.976,1.092 -0.728,-2.799 -0.522,-3.757 0.93,-5.376 5.737,-0.991 3.728,-0.287 7.532,1.289l0.593 2.407c0.713,5.681 -0.738,13.002 -6.544,14.865 -5.521,1.772 -13.164,-0.288 -16.444,-3.481 -0.227,-0.414 -1.474,-6.187 0.8,-7.844l2.671 -1.252c-0.916,-0.851 -2.175,-1.312 -3.769,-1.16 -2.704,0.256 -4.902,1.816 -5.798,4.565 -0.224,0.686 -0.289,1.411 -0.48,2.003 -0.783,2.415 0.495,1.45 -1.255,1.634 -0.341,-1.709 -5.41,-4.8 -4.068,-12.514 0.369,-2.118 1.448,-3.074 -0.193,-4.183 -1.644,-0.442 -4.989,4.141 -4.645,7.062l-0.875 2.428c-0.274,1.004 -0.329,1.351 -0.845,2.49 -5.083,-1 -5.89,0.076 -10.223,-0.066 0.051,-1.347 -0.116,-2.624 -0.472,-3.61 -0.693,-1.917 -1.244,-1.991 -2.006,-2.426 -0.696,-3.376 -8.536,-5.725 -10.653,-3.082 1.862,1.369 3.082,-0.034 5.1,2.615 1.493,1.96 1.429,3.796 2.491,5.703 0.966,4.672 -0.078,5.556 -2.259,8.688 -10.714,15.386 -15.769,0.677 -11.758,-2.404 1.568,-1.205 2.11,-0.22 3.659,0.34l-0.381 4.008c3.734,0.098 7.281,-5.136 2.438,-8.153 -10.434,-6.499 -12.424,7.009 -12.586,7.278 -6.855,-9.508 -17.676,-5.962 -18.647,-0.238 3.269,-0.272 7.833,-3.736 15.564,3.255 3.31,2.994 7.017,7.595 14.343,7.086 11.264,-0.784 12.433,-17.702 22.402,-14.929 2.125,0.591 1.211,1.223 3.512,2.25 -0.138,1.321 -0.407,0.48 0.472,1.354l-0.368 0.718c-0.605,1.287 -1.401,4.167 -4.036,2.932 -2.747,-1.271 0.366,-2.746 -3.755,-4.016 -3.213,2.403 -2.358,6.344 0.54,8.323 4.445,3.035 8.149,-0.083 9.736,-0.612 0.196,6.185 3.029,11.171 9.683,10.471 6.761,-0.71 7.476,-9.955 0.825,-10.806 0.483,1.875 1.62,5.768 -1.834,5.242 -2.554,-0.39 -2.1,-5.149 -1.286,-6.943 5.727,-4.425 20.735,8.724 29.533,-0.772l0.487 1.509c-0.199,2.345 -0.2,5.019 1.379,6.261 1.406,1.106 3.347,0.901 4.421,-0.281 1.7,-1.87 0.446,-0.179 0.659,-1.469 0.451,-0.248 0.717,-0.197 1.479,-0.81l0.136 -3.532c4.599,0.618 8.948,3.691 17.794,0.048 5.214,-2.148 13.812,-4.672 12.256,4.604 -1.042,0.932 -1.755,2.066 -4.068,1.467 -0.486,-2.543 -0.049,-7.391 -3.495,-4.146 -1.391,1.309 -2.361,4.36 -0.869,6.703 2.343,3.678 7.496,4.376 10.968,0.974l0.891 -1.289z"/>
 </g>
</svg>
