<?xml version="1.0" encoding="UTF-8"?>
<!DOCTYPE svg PUBLIC "-//W3C//DTD SVG 1.1//EN" "http://www.w3.org/Graphics/SVG/1.1/DTD/svg11.dtd">
<!-- Creator: CorelDRAW 2021 (64-Bit) -->
<svg xmlns="http://www.w3.org/2000/svg" xml:space="preserve" width="1123px" height="794px" version="1.1" style="shape-rendering:geometricPrecision; text-rendering:geometricPrecision; image-rendering:optimizeQuality; fill-rule:evenodd; clip-rule:evenodd"
viewBox="0 0 1123 794.04"
 xmlns:xlink="http://www.w3.org/1999/xlink"
 xmlns:xodm="http://www.corel.com/coreldraw/odm/2003">
 <defs>
  <style type="text/css">
   <![CDATA[
    .fil0 {fill:white}
   ]]>
  </style>
 </defs>
 <g id="Слой_x0020_1">
  <metadata id="CorelCorpID_0Corel-Layer"/>
  <path class="fil0" d="M726.403 320.546c-0.662,-0.38 -3.623,-0.797 -4.705,-1.026 -1.579,-0.333 -3.029,-0.709 -4.802,-1.233 -13.383,-3.962 -17.742,-8.97 -25.148,-20.357 -4.655,-7.159 -7.832,-12.265 -15.182,-18.167 -7.317,-5.874 -11.625,-7.595 -19.025,-11.793 1.546,-0.654 9.671,-0.217 11.642,0.019 3.637,0.436 7.666,1.074 11.622,2.551 4.663,1.741 7.803,3.61 11.391,8.122 3.955,4.972 4.163,8.409 5.684,11.22 0.733,-4.153 5.436,-9.259 9.936,-11.436 1.236,-0.597 2.948,-1.498 4.287,-1.163 -5.226,8.361 -5.928,22.073 1.832,29.769 4.761,4.722 10.653,6.254 15.089,5.774 4.434,-0.48 10.87,-4.208 14.075,-9.24 6.64,-10.423 -2.025,-24.798 -13.664,-20.296 -7.11,2.751 -7.447,11.012 -4.85,13.616 3.058,3.066 8.532,0.77 9.049,-4.254 0.175,-1.708 -0.45,-2.536 -0.231,-3.811 3.505,2.085 7.669,4.44 5.066,10.827 -3.486,8.55 -16.752,9.742 -21.998,-0.095 -9.201,-17.25 14.695,-36.269 30.873,-21.174 5.505,5.136 5.111,8.957 6.287,11.899 2.435,-3.624 3.407,-5.961 7.687,-7.609 2.401,-0.925 6.961,-1.674 8.821,-1.264 0.497,1.947 0.021,6.704 -0.753,9.071 -1.608,4.917 -5.186,6.145 -7.14,8.045 9.666,1.089 17.119,7.778 18.409,17.29 0.487,3.591 0.081,7.655 -2.403,11.98 -8.645,15.052 -29.804,11.534 -30.616,-2.563 -0.215,-3.737 1.221,-8.708 6.175,-11.1 4.91,-2.37 7.82,-0.61 11.119,4.388 -0.782,0.203 -0.016,0.067 -0.672,0.095l-1.504 -0.138c-6.413,-0.401 -9.053,6.636 -4.923,9.65 2.742,2.001 10.79,1.295 13.06,-6.528 3.357,-11.563 -11.871,-19.253 -21.614,-11.599 -9.701,7.621 -11.118,20.902 -0.787,29.554 4.826,4.041 10.822,4.697 15.018,4.335 10.147,-0.875 12.615,-4.41 14.478,-4.649 -0.388,2.852 -1.551,5.728 -3.516,8.419 -2.895,3.963 -4.863,4.236 -8.097,6.42 1.472,0.817 4.173,1.358 6.131,2.229 11.686,5.195 15.075,13.832 17.137,25.445 0.409,2.303 1.155,9.587 0.636,11.25 -3.981,-6.456 -7.554,-12.395 -13.07,-18.455 -6.284,-6.905 -11.54,-9.712 -18.881,-13.897 -14.069,-8.021 -18.83,-13.183 -23.376,-28.803 -0.309,-1.063 -0.752,-3.707 -1.26,-4.416 -1.742,1.846 -3.524,3.3 -5.583,4.166 -1.743,0.733 -4.162,1.112 -5.727,0.501 -0.71,-1.59 -0.386,-4.115 0.179,-5.753 0.759,-2.204 2.022,-3.885 3.844,-5.816z"/>
 </g>
</svg>
